<svg xmlns="http://www.w3.org/2000/svg" 
xmlns:xlink="http://www.w3.org/1999/xlink" 
version="1.1" x="0px" y="0px" viewBox="0 0 512 640" 
style="enable-background:new 0 0 512 512;" xml:space="preserve"><g><g><g><g><g><path fill="#FFFFFF"
d="M256.263,442.936c-1.85,0-3.589-0.885-4.678-2.38c-24.117-33.099-52.36-59.285-79.675-84.609       
C120.369,308.16,71.684,263.022,71.684,184.581C71.684,82.803,154.487,0,256.263,0c101.868,0,184.745,82.803,184.745,184.581       
c0,78.419-48.719,123.546-100.299,171.322c-27.352,25.336-55.635,51.534-79.768,84.652       
C259.854,442.051,258.113,442.936,256.263,442.936z M256.263,11.575c-95.395,0-173.004,77.61-173.004,173.006       
c0,73.389,44.729,114.858,96.521,162.877c25.992,24.099,52.813,48.964,76.483,80.008c23.69-31.063,50.553-55.945,76.581-80.055       
c51.828-48.007,96.588-89.467,96.588-162.83C429.432,89.186,351.75,11.575,256.263,11.575z"/></g><g><path fill="#FFFFFF"
d="M256.249,340.506c-85.879,0-155.746-69.955-155.746-155.943c0-85.877,69.867-155.744,155.746-155.744       
c3.197,0,5.789,2.591,5.789,5.788s-2.592,5.788-5.789,5.788c-79.496,0-144.171,64.674-144.171,144.168       
c0,79.604,64.675,144.368,144.171,144.368c79.603,0,144.365-64.764,144.365-144.368c0-3.196,2.592-5.788,5.789-5.788       
s5.787,2.591,5.787,5.788C412.189,270.551,342.236,340.506,256.249,340.506z"/></g><g><path fill="#FFFFFF"
d="M399.078,512H111.313c-22.233,0-40.32-18.087-40.32-40.319c0-22.233,18.087-40.32,40.32-40.32h287.765       
c22.232,0,40.318,18.087,40.318,40.32C439.396,493.913,421.311,512,399.078,512z M111.313,442.936       
c-15.851,0-28.745,12.895-28.745,28.745c0,15.85,12.895,28.744,28.745,28.744h287.765c15.848,0,28.742-12.895,28.742-28.744       
c0-15.851-12.895-28.745-28.742-28.745H111.313z"/></g></g></g><g><g><path fill="#FFFFFF"
d="M181.971,259.614h-17.945c-2.479,0-4.488-2.009-4.488-4.485V116.044c0-7.423,6.039-13.459,13.46-13.459      
c7.423,0,13.459,6.036,13.459,13.459v139.084C186.457,257.605,184.449,259.614,181.971,259.614z M168.511,250.643h8.974V116.044      
c0-2.476-2.014-4.488-4.487-4.488s-4.486,2.012-4.486,4.488V250.643z"/></g><g><path fill="#FFFFFF"
d="M347.977,259.614h-17.947c-2.479,0-4.486-2.009-4.486-4.485v-85.247c0-7.421,6.037-13.459,13.459-13.459      
s13.461,6.038,13.461,13.459v85.247C352.463,257.605,350.453,259.614,347.977,259.614z M334.516,250.643h8.973v-80.76      
c0-2.472-2.012-4.486-4.486-4.486c-2.473,0-4.486,2.014-4.486,4.486V250.643z"/></g><g><path fill="#FFFFFF"
d="M330.029,223.722H181.971c-2.478,0-4.486-2.008-4.486-4.485c0-2.479,2.009-4.488,4.486-4.488h148.058      
c2.477,0,4.486,2.009,4.486,4.488C334.516,221.714,332.506,223.722,330.029,223.722z"/></g><g><path fill="#FFFFFF"
d="M330.029,237.184H181.971c-2.478,0-4.486-2.011-4.486-4.488s2.009-4.487,4.486-4.487h148.058      
c2.477,0,4.486,2.01,4.486,4.487S332.506,237.184,330.029,237.184z"/></g><g><path fill="#FFFFFF"
d="M330.029,223.722h-94.218c-2.478,0-4.488-2.008-4.488-4.485V174.37c0-2.479,2.011-4.488,4.488-4.488h49.351      
c27.213,0,49.354,22.141,49.354,49.354C334.516,221.714,332.506,223.722,330.029,223.722z M240.296,214.748h84.999      
c-2.238-20.159-19.383-35.891-40.133-35.891h-44.866V214.748z"/></g><g><path fill="#FFFFFF"
d="M208.89,210.263c-9.895,0-17.945-8.051-17.945-17.945c0-9.897,8.051-17.947,17.945-17.947      
c9.896,0,17.947,8.05,17.947,17.947C226.837,202.212,218.787,210.263,208.89,210.263z M208.89,183.342      
c-4.947,0-8.972,4.026-8.972,8.976c0,4.947,4.024,8.972,8.972,8.972c4.949,0,8.974-4.024,8.974-8.972      
C217.864,187.368,213.839,183.342,208.89,183.342z"/></g></g></g></g></svg>